<?xml version="1.0" encoding="utf-8"?>
<!-- Generator: Adobe Illustrator 16.0.3, SVG Export Plug-In . SVG Version: 6.00 Build 0)  -->
<!DOCTYPE svg PUBLIC "-//W3C//DTD SVG 1.1//EN" "http://www.w3.org/Graphics/SVG/1.1/DTD/svg11.dtd">
<svg version="1.1" id="Capa_1" xmlns="http://www.w3.org/2000/svg" xmlns:xlink="http://www.w3.org/1999/xlink" x="0px" y="0px"
	 width="519.666px" height="552.333px" viewBox="0 0 519.666 552.333" enable-background="new 0 0 519.666 552.333"
	 xml:space="preserve">
<g>
	<path fill-rule="evenodd" clip-rule="evenodd" fill="#2D3E50" d="M245.768,442.35c-63.974-0.001-127.944-0.015-191.915,0.007
		c-15.259,0.007-26.659-7.178-33.846-22.006c-3.348-6.911-4.302-14.462-3.479-22.218c0.547-5.152,2.404-6.957,7.049-6.959
		c50.869-0.025,101.736-0.015,152.605-0.021c5.675-0.002,10.822,2.434,15.929,4.585c7.923,3.338,15.926,4.706,24.423,4.554
		c19.775-0.351,39.567-0.372,59.345,0.005c8.251,0.157,16.082-1.034,23.649-4.497c8.076-3.696,16.431-4.798,25.185-4.755
		c47.273,0.229,94.547,0.108,141.815,0.11c7.246,0.002,8.911,1.753,9.145,9.54c0.707,23.646-15.261,41.62-37.219,41.64
		C374.226,442.389,309.997,442.354,245.768,442.35z"/>
	<path fill-rule="evenodd" clip-rule="evenodd" fill="#2D3E4F" d="M245.884,382.024c-59.87-0.001-119.739,0.001-179.609-0.001
		c-14.096-0.002-21.354-7.981-21.354-23.458c0-78.861-0.012-157.722,0.009-236.583c0.005-16.837,8.695-29.186,22.679-32.205
		c2.367-0.512,4.851-0.521,7.28-0.521c100.211-0.023,200.422-0.021,300.633-0.014c1.526,0,2.994,0.13,4.526,0.635
		c3.686,1.215,5.464,3.846,4.56,7.791c-0.721,3.162-3.699,3.91-6.281,4.662c-0.722,0.209-1.534,0.03-2.306,0.03
		c-97.896,0-195.796,0-293.695,0.005c-2.826,0-5.653,0.001-8.478,0.071c-10.659,0.263-16.876,7.217-16.878,18.93
		c-0.01,71.654-0.004,143.309-0.006,214.961c0,7.771-0.018,15.547,0,23.319c0.016,6.82,2.396,9.386,8.675,9.386
		c91.989,0.003,183.979,0.005,275.966,0.007c28.136,0,56.272,0,84.408-0.007c6.806-0.002,9.002-2.399,9.002-9.857
		c0.005-32.788,0.057-65.576-0.086-98.365c-0.016-3.69,0.731-4.807,4.195-4.665c7.856,0.316,7.874,0.097,7.874,8.535
		c0.003,31.372-0.257,62.752,0.114,94.122c0.171,14.358-8.758,23.465-21.237,23.389
		C365.881,381.826,305.884,382.025,245.884,382.024z"/>
	<path fill-rule="evenodd" clip-rule="evenodd" fill="#3597D9" d="M387.607,62.171c2.059,0.531,5.082,1.199,8.039,2.113
		c2.018,0.623,3.477,0.247,4.533-1.831c0.433-0.854,0.896-1.86,1.602-2.355c6.663-4.665,5.367-10.603,2.357-16.866
		c-1.506-3.132-0.81-5.276,2.218-6.733c3.17-1.529,6.232-3.329,9.319-5.059c2.495-1.398,4.508-1.067,5.683,1.936
		c2.75,7.05,6.71,10.454,14.437,8.895c4.02-0.813,5.965-2.009,7.467-5.926c4.077-10.629,3.408-8.728,11.604-5.708
		c10.583,3.897,9.69,2.082,7.217,14.287c-0.725,3.579,0.432,5.305,2.453,7.906c4.951,6.373,10.027,7.419,16.478,3.116
		c2.609-1.743,4.804-0.793,6.095,2.611c1.329,3.507,2.986,6.868,4.595,10.237c1.153,2.417,1.037,4.693-1.336,5.672
		c-8.018,3.306-10.259,9.479-8.615,18.352c0.43,2.316,0.672,3.988,2.803,4.792c0.726,0.271,1.373,0.772,2.08,1.101
		c10.04,4.645,8.312,4.279,5.44,13.831c-3.203,10.679-2.154,10.069-11.904,7.293c-3.795-1.08-5.719,0.211-8.481,3.025
		c-5.188,5.292-6.286,10.435-2.685,17.091c1.897,3.504,0.891,6.021-2.696,7.555c-2.855,1.22-5.537,2.95-8.269,4.506
		c-2.561,1.465-4.876,1.426-6.035-1.839c-2.745-7.712-7.18-10.829-14.967-8.77c-2.971,0.788-4.871,1.146-6.272,4.499
		c-4.873,11.643-3.127,10.41-13.56,6.591c-8.408-3.077-8.706-3.225-6.139-12.657c1.247-4.583,0.625-7.468-3.1-9.655
		c-0.337-0.198-0.755-0.398-0.932-0.73c-3.596-6.731-8.327-4.85-13.378-2.414c-5.033,2.424-5.515,2.053-7.902-3.369
		c-1.286-2.918-2.495-5.887-3.91-8.729c-1.277-2.573-1.207-4.983,1.371-5.949c8.471-3.174,9.575-9.988,8.339-18.443
		c-0.317-2.164-0.571-3.677-2.597-4.532c-2.27-0.957-4.362-2.433-6.645-3.345c-2.897-1.158-3.766-3.082-2.73-6.233
		c1.213-3.714,2.349-7.461,3.519-11.196C383.684,63.38,384.55,61.9,387.607,62.171z"/>
	<path fill-rule="evenodd" clip-rule="evenodd" fill="#3597DA" d="M397.663,186.758c-2.063-0.479-4.498-0.848-6.814-1.641
		c-1.802-0.615-2.938-0.221-3.772,1.567c-0.174,0.371-0.401,0.759-0.693,1.01c-4.867,4.178-5.586,9.045-2.331,14.845
		c1.37,2.444,0.286,4.233-1.977,5.372c-2.447,1.234-4.914,2.465-7.238,3.952c-2.313,1.48-4.096,0.939-4.987-1.598
		c-2.353-6.686-6.569-8.236-12.672-6.864c-2.31,0.518-3.551,1.227-4.54,3.473c-3.755,8.544-3.809,8.516-12.063,5.401
		c-5.751-2.172-5.759-2.175-4.454-8.712c0.435-2.169,1.828-4.82,0.592-6.459c-2.174-2.877-4.973-5.312-7.844-7.36
		c-1.583-1.126-3.358,0.878-4.995,1.533c-6.102,2.439-6.074,2.515-9.032-3.708c-0.237-0.5-0.505-0.982-0.735-1.489
		c-3.269-7.212-3.319-7.541,3.011-11.443c2.921-1.801,3.319-3.77,3.345-7.38c0.041-6.31-1.853-9.922-7.463-11.423
		c-2.666-0.714-3.745-2.825-2.368-5.844c0.113-0.246,0.123-0.547,0.2-0.815c2.976-10.28,2.988-10.359,12.595-8.633
		c1.843,0.33,2.959-0.113,3.877-1.72c0.135-0.238,0.21-0.56,0.399-0.717c5.089-4.22,5.712-9.216,2.479-15.168
		c-1.192-2.197-0.312-4.075,1.828-5.136c0.232-0.115,0.436-0.303,0.658-0.44c9.025-5.509,9.043-5.521,14.987,3.684
		c0.899,1.396,1.833,1.623,3.449,1.728c6.673,0.439,11.259-1.833,12.783-9.605c0.376-1.911,2.064-2.366,3.767-1.901
		c0.868,0.236,1.718,0.559,2.565,0.877c8.914,3.354,8.97,3.368,7.124,13.464c-0.325,1.787-0.143,3.007,1.208,4
		c0.108,0.077,0.211,0.168,0.293,0.275c4.044,5.261,8.63,7.438,14.519,3.373c2.122-1.468,3.633-0.214,4.691,1.923
		c0.183,0.372,0.33,0.765,0.516,1.136c4.79,9.682,4.803,9.701-3.321,16.079c-1.234,0.969-1.626,1.869-1.707,3.726
		c-0.302,7.176,1.324,12.486,8.548,14.075c2.02,0.443,2.362,2.394,1.799,4.402c-0.946,3.367-1.96,6.708-2.949,10.061
		C400.476,186.228,399.447,186.863,397.663,186.758z"/>
	<path fill-rule="evenodd" clip-rule="evenodd" fill="#3597D9" d="M409.702,177.401c-0.393-1.955-2.138-3.353-3.384-5.073
		c-3.476-4.797-3.532-4.871,0.223-8.999c6.371-7.007,6.415-7.066,13.466-1.099c1.534,1.301,2.788,1.81,4.407,0.501
		c0.202-0.163,0.449-0.309,0.692-0.361c5.688-1.211,8.338-4.875,7.938-11.344c-0.181-2.975,1.416-4.36,4.148-4.061
		c0.381,0.044,0.769,0.011,1.153,0.011c9.19,0.011,9.229,0.005,10.45,9.871c0.218,1.768,0.877,2.796,2.378,3.416
		c2.155,0.889,4.344,1.765,6.354,2.973c1.669,1.003,2.573,0.036,3.72-0.926c8.165-6.854,5.597-7.443,13.161,0.804
		c3.924,4.277,3.864,4.666,0.483,9.414c-1.229,1.725-3.791,3.155-3.301,5.341c0.786,3.489,2.175,7.031,4.103,9.909
		c1.179,1.76,4.075,1.433,6.176,1.376c3.997-0.109,4.918,1.881,4.832,5.948c-0.21,10.076-0.039,10.158-8.771,11.746
		c-1.936,0.351-2.556,1.446-3.484,3.173c-3.117,5.797-3.152,10.822,1.896,15.252c0.096,0.085,0.192,0.204,0.233,0.331
		c2.104,6.703-4.354,7.615-6.505,11.444c-1.315,2.346-3.157,1.458-4.884-0.138c-5.769-5.322-8.938-5.532-15.027-1.384
		c-1.05,0.71-1.167,1.81-1.305,2.886c-0.199,1.535-0.255,3.093-0.328,4.643c-0.183,3.794-1.462,5.782-5.437,5.618
		c-10.989-0.453-9.633,1.637-10.686-10.248c-0.156-1.762-0.844-2.423-2.298-3.291c-5.645-3.372-10.585-3.711-14.98,2.344
		c-1.096,1.505-2.747,1.363-4.014-0.233c-0.34-0.425-0.65-0.875-0.997-1.292c-2.133-2.58-5.728-4.266-6.127-7.851
		c-0.389-3.552,3.095-5.543,4.824-8.254c0.729-1.144,1.125-2.18,0.371-3.464c-0.275-0.472-0.565-0.985-0.666-1.521
		c-1.209-6.457-4.651-9.41-10.738-8.709c-2.428,0.279-3.438-1.436-3.258-4.032c0.039-0.561,0-1.129-0.005-1.695
		c-0.104-10.413-0.102-10.407,9.142-11.861c0.74-0.115,1.915-0.186,2.113-0.666C407.155,184.575,408.329,181.151,409.702,177.401z"
		/>
	<path fill-rule="evenodd" clip-rule="evenodd" fill="#F5FBF9" d="M466.622,91.798c-0.035,18.43-13.345,33.09-30.023,33.069
		c-16.648-0.021-29.829-14.767-29.78-33.304c0.051-18.439,13.298-32.814,30.203-32.775
		C453.468,58.828,466.658,73.537,466.622,91.798z"/>
	<path fill-rule="evenodd" clip-rule="evenodd" fill="#F3FBF9" d="M357.086,189.622c-13.595,0.034-24.626-11.91-24.677-26.721
		c-0.05-14.565,11.253-27.051,24.478-27.036c13.71,0.016,24.65,11.791,24.704,26.594
		C381.65,177.772,370.992,189.586,357.086,189.622z"/>
	<path fill-rule="evenodd" clip-rule="evenodd" fill="#F3FAFA" d="M464.192,197.858c0.008,14.387-10.637,26.034-23.784,26.031
		c-12.729-0.004-23.425-11.876-23.448-26.032c-0.021-14.422,10.503-26.067,23.646-26.165
		C453.645,171.594,464.185,183.29,464.192,197.858z"/>
	<path fill-rule="evenodd" clip-rule="evenodd" fill="#2D3E50" d="M436.502,119.256c-13.771-0.102-24.903-12.515-24.835-27.689
		c0.069-15.052,11.48-27.385,25.24-27.28c13.728,0.104,24.948,12.644,24.82,27.74C461.601,107.199,450.337,119.357,436.502,119.256z
		"/>
	<path fill-rule="evenodd" clip-rule="evenodd" fill="#2D3E50" d="M337.404,162.751c-0.005-11.881,8.692-21.579,19.456-21.697
		c11.067-0.121,20.094,9.807,20.021,22.014c-0.073,11.783-8.888,21.389-19.716,21.478
		C346.274,184.638,337.41,174.858,337.404,162.751z"/>
	<path fill-rule="evenodd" clip-rule="evenodd" fill="#2D3E50" d="M459.638,197.62c0.073,11.63-8.38,21.166-18.84,21.252
		c-10.445,0.086-19.217-9.349-19.318-20.779c-0.106-11.791,8.461-21.414,19.085-21.434
		C451.084,176.64,459.563,185.959,459.638,197.62z"/>
	<g>
		<path fill-rule="evenodd" clip-rule="evenodd" fill="#010101" d="M158.28,107.593c9.912,0.338,16.337,6.307,16.34,15.401
			c0.023,56.294,0.018,112.59-0.01,168.885c-0.003,9.009-6.7,15.207-16.484,15.232c-23.163,0.061-46.324,0.073-69.486,0.041
			c-10.244-0.017-16.802-6.188-16.804-15.661C71.828,255.081,72,218.667,71.67,182.257c-0.056-6.023,0.805-12.121-0.049-18.019
			c-0.804-5.555,0.101-10.898,0.306-16.321c0.092-2.476-1.25-4.661-0.967-7.116c0.748-6.511,0.72-13.058,0.978-19.595
			c0.316-8.073,7.316-13.565,16.669-13.595c17.151-0.054,34.304-0.027,51.456-0.034C146.137,106.674,152.209,106.651,158.28,107.593
			z"/>
		<path fill-rule="evenodd" clip-rule="evenodd" fill="#619692" d="M159.684,397.604c-6.071-0.007-12.146-0.009-18.22-0.015
			c0.664-0.96,1.625-1.26,2.832-1.251c4.184,0.028,8.371,0.026,12.553-0.029C158.088,396.292,158.963,396.751,159.684,397.604z"/>
		<path fill-rule="evenodd" clip-rule="evenodd" fill="#F3F3F3" d="M168.803,206.957c0.003,23.241-0.047,46.479,0.069,69.719
			c0.016,2.819-0.752,3.657-3.903,3.644c-27.174-0.113-54.347-0.101-81.52,0.005c-2.989,0.013-3.968-0.521-3.961-3.528
			c0.119-46.477,0.118-92.958,0.001-139.435c-0.006-2.897,0.768-3.61,3.848-3.6c27.297,0.104,54.598,0.11,81.895-0.024
			c3.127-0.016,3.633,0.92,3.622,3.501C168.756,160.477,168.796,183.717,168.803,206.957z"/>
		<path fill-rule="evenodd" clip-rule="evenodd" fill="#F5F5F5" d="M133.899,291.508c-0.067,5.032-4.448,8.965-9.826,8.819
			c-4.955-0.133-9.14-4.137-9.153-8.755c-0.014-4.96,4.407-8.875,9.869-8.741C129.874,282.957,133.958,286.847,133.899,291.508z"/>
		<path fill-rule="evenodd" clip-rule="evenodd" fill="#F7F7F7" d="M133.704,418.52c-2.126,0-4.256-0.028-6.38,0.008
			c-1.471,0.023-2.575-0.576-2.563-1.899c0.011-1.048,0.862-1.879,2.247-1.885c4.756-0.015,9.513-0.075,14.268-0.045
			c1.4,0.008,2.427,0.627,2.307,2.131c-0.108,1.339-1.136,1.693-2.367,1.703c-2.503,0.023-5.005,0.006-7.511,0.006
			C133.704,418.533,133.704,418.525,133.704,418.52z"/>
		<path fill-rule="evenodd" clip-rule="evenodd" fill="#E3E3E3" d="M126.597,407.441c-0.038,1.119-0.807,1.71-1.874,1.684
			c-1.02-0.022-1.94-0.56-1.945-1.664c-0.005-1.231,0.914-1.897,2.117-1.848C125.939,405.655,126.671,406.32,126.597,407.441z"/>
	</g>
</g>
<g>
	<path fill-rule="evenodd" clip-rule="evenodd" d="M123.258,173.933c2.455,0.811,5.014,1.211,7.535,1.76
		c0.976,0.212,1.314,0.484,0.979,1.489c-0.409,1.226-0.603,2.518-0.943,3.766c-0.152,0.556-0.056,0.842,0.519,1.103
		c2.62,1.193,4.945,2.807,6.949,4.826c0.417,0.42,0.706,0.389,1.157,0.102c1.248-0.79,2.532-1.525,3.781-2.313
		c0.49-0.31,0.782-0.398,1.158,0.205c1.377,2.218,2.806,4.406,4.254,6.58c0.336,0.503,0.218,0.709-0.261,0.983
		c-1.315,0.753-2.591,1.574-3.909,2.321c-0.486,0.275-0.607,0.526-0.408,1.059c0.998,2.665,1.496,5.422,1.462,8.26
		c-0.005,0.487,0.134,0.692,0.668,0.798c1.536,0.299,3.048,0.713,4.583,1.016c0.521,0.104,0.617,0.309,0.511,0.747
		c-0.622,2.59-1.25,5.179-1.85,7.774c-0.129,0.561-0.414,0.555-0.898,0.437c-1.481-0.358-2.99-0.623-4.462-1.014
		c-0.594-0.159-0.813,0.018-1.038,0.484c-1.22,2.544-2.896,4.782-4.98,6.725c-0.452,0.418-0.461,0.705-0.125,1.19
		c0.831,1.196,1.565,2.454,2.397,3.649c0.345,0.497,0.374,0.75-0.211,1.091c-2.292,1.334-4.564,2.702-6.816,4.103
		c-0.547,0.341-0.76,0.201-1.049-0.27c-0.757-1.239-1.583-2.442-2.334-3.685c-0.304-0.501-0.603-0.653-1.192-0.44
		c-2.718,0.979-5.542,1.414-8.435,1.381c-0.607-0.008-0.801,0.247-0.912,0.733c-0.319,1.407-0.672,2.807-0.974,4.218
		c-0.125,0.583-0.326,0.775-1,0.612c-2.521-0.612-5.056-1.167-7.594-1.701c-0.719-0.152-0.894-0.392-0.674-1.112
		c0.4-1.308,0.638-2.661,0.98-3.986c0.151-0.589,0.043-0.919-0.58-1.202c-2.585-1.174-4.885-2.757-6.853-4.765
		c-0.435-0.444-0.732-0.43-1.237-0.099c-1.235,0.805-2.542,1.505-3.779,2.309c-0.56,0.364-0.802,0.259-1.134-0.271
		c-1.369-2.178-2.763-4.344-4.2-6.482c-0.372-0.554-0.255-0.771,0.283-1.078c1.319-0.747,2.588-1.575,3.901-2.332
		c0.441-0.254,0.539-0.466,0.355-0.965c-0.983-2.667-1.519-5.418-1.443-8.259c0.014-0.559-0.195-0.764-0.751-0.872
		c-1.461-0.281-2.906-0.639-4.362-0.947c-0.54-0.114-0.833-0.251-0.659-0.919c0.652-2.506,1.265-5.024,1.818-7.552
		c0.146-0.658,0.465-0.646,0.96-0.532c1.45,0.336,2.908,0.639,4.346,1.014c0.607,0.159,0.899-0.014,1.149-0.536
		c1.2-2.511,2.861-4.717,4.915-6.634c0.503-0.471,0.467-0.792,0.119-1.3c-0.825-1.2-1.565-2.455-2.396-3.649
		c-0.347-0.5-0.236-0.706,0.258-0.999c2.25-1.331,4.494-2.673,6.695-4.075c0.644-0.41,0.884-0.225,1.212,0.313
		c0.736,1.21,1.552,2.375,2.284,3.586c0.291,0.481,0.54,0.691,1.155,0.47c2.715-0.978,5.533-1.455,8.432-1.361
		c0.668,0.021,0.835-0.289,0.959-0.8c0.397-1.653,0.816-3.302,1.226-4.952C122.952,173.933,123.105,173.933,123.258,173.933z"/>
	<path fill-rule="evenodd" clip-rule="evenodd" d="M102.794,287.703c-2.41-0.902-4.206-2.485-5.467-4.643
		c-0.803-1.375-0.708-1.888,0.459-3.006c8.382-8.029,16.753-16.07,25.165-24.07c0.766-0.729,0.876-1.26,0.469-2.242
		c-2.205-5.314-1.589-10.419,1.909-15.006c3.617-4.744,9.054-6.824,14.91-6.055c-0.053,0.366-0.378,0.531-0.601,0.746
		c-2.738,2.643-5.47,5.291-8.242,7.903c-0.461,0.434-0.534,0.771-0.29,1.33c1.146,2.616,2.269,5.242,3.353,7.88
		c0.22,0.533,0.527,0.828,1.067,1.04c2.688,1.056,5.371,2.128,8.028,3.252c0.681,0.289,1.082,0.17,1.575-0.323
		c2.868-2.872,5.766-5.713,8.779-8.483c0.618,3.164,0.109,6.102-1.328,8.853c-3.911,7.478-12.676,10.548-20.673,7.265
		c-0.82-0.336-1.294-0.263-1.944,0.364c-8.351,8.06-16.738,16.084-25.117,24.118c-0.375,0.359-0.754,0.719-1.13,1.078
		C103.408,287.703,103.101,287.703,102.794,287.703z"/>
	<path fill-rule="evenodd" clip-rule="evenodd" d="M162.588,243.355c-0.113,0.784,0.662,1.751,0.037,2.295
		c-0.501,0.433-1.53,0.293-2.324,0.415c-2.24,0.342-2.254,0.345-2.607-1.864c-0.1-0.61-0.261-0.954-1.04-0.982
		c-1.144-0.04-2.263-0.362-3.3-0.847c-0.613-0.287-0.969-0.262-1.419,0.322c-1.355,1.769-1.393,1.746-3.199,0.409
		c-0.667-0.495-1.696-0.898-1.884-1.531c-0.202-0.674,0.806-1.307,1.303-1.939c0.319-0.405,0.309-0.649-0.016-1.019
		c-0.796-0.906-1.47-1.91-1.857-3.035c-0.251-0.729-0.645-0.839-1.349-0.748c-2.111,0.279-2.115,0.257-2.422-1.723
		c-0.068-0.438-0.132-0.878-0.185-1.318c-0.169-1.438-0.169-1.539,1.289-1.581c1.253-0.038,1.847-0.394,1.86-1.693
		c0.013-0.95,0.388-1.888,0.837-2.743c0.299-0.565,0.138-0.852-0.344-1.182c-0.615-0.425-1.643-0.916-1.65-1.391
		c-0.01-0.617,0.797-1.255,1.277-1.868c0.48-0.618,0.903-1.586,1.514-1.721c0.641-0.141,1.29,0.774,1.918,1.247
		c0.429,0.325,0.72,0.362,1.148,0c0.926-0.781,1.98-1.404,3.14-1.791c0.692-0.231,0.819-0.581,0.733-1.219
		c-0.282-2.102-0.263-2.106,1.938-2.42c0.83-0.12,1.847-0.562,2.451-0.255c0.646,0.33,0.413,1.462,0.512,2.251
		c0.062,0.531,0.292,0.722,0.872,0.761c1.227,0.083,2.423,0.391,3.524,0.904c0.625,0.29,0.927,0.156,1.318-0.338
		c1.395-1.766,1.418-1.759,3.285-0.367c0.658,0.491,1.653,0.932,1.814,1.558c0.123,0.483-0.769,1.261-1.298,1.832
		c-0.418,0.453-0.271,0.735,0.066,1.112c0.751,0.847,1.376,1.798,1.747,2.842c0.284,0.801,0.713,0.958,1.507,0.848
		c2.075-0.291,2.075-0.265,2.309,1.716c0.066,0.55,0.056,1.131,0.245,1.644c0.397,1.099-0.293,1.193-1.105,1.291
		c-1.796,0.214-1.778,0.228-2.132,1.883c-0.146,0.686-0.233,1.432-0.587,2.014c-0.618,1.018-0.24,1.528,0.645,2.11
		c1.4,0.917,1.363,0.971,0.31,2.305c-0.069,0.087-0.138,0.179-0.209,0.266c-0.567,0.696-1.014,1.759-1.737,1.983
		c-0.697,0.216-1.397-0.836-2.094-1.329c-0.36-0.254-0.576-0.208-0.878,0.034c-1.033,0.834-2.169,1.507-3.442,1.947
		C162.64,242.604,162.401,242.846,162.588,243.355z"/>
	<path fill-rule="evenodd" clip-rule="evenodd" fill="#FEFEFE" d="M103.416,203.796c-0.048-9.044,7.624-16.417,17.124-16.456
		c9.251-0.038,16.953,7.375,16.997,16.355c0.043,9.278-7.508,16.633-17.121,16.671C111.056,220.406,103.465,213.007,103.416,203.796
		z"/>
	<path fill-rule="evenodd" clip-rule="evenodd" fill="#FEFEFE" d="M158.273,223.304c4.133-0.077,7.605,3.252,7.694,7.377
		c0.091,3.989-3.377,7.366-7.63,7.435c-4.145,0.067-7.636-3.277-7.693-7.375C150.587,226.72,154.011,223.382,158.273,223.304z"/>
</g>
<text transform="matrix(0.8048 0 0 1 190.0635 260.1147)" fill="#16873E" stroke="#D4F706" stroke-width="4" stroke-miterlimit="10" font-family="'TimesNewRomanPSMT'" font-size="43.1403">Neo Tecnology</text>
<text transform="matrix(0.8048 0 0 1 190.0635 260.1147)" fill="#16873E" stroke="#67EF0F" stroke-width="2" stroke-miterlimit="10" font-family="'TimesNewRomanPSMT'" font-size="43.1403">Neo Tecnology</text>
<text transform="matrix(0.8048 0 0 1 190.0635 260.1147)" fill="#06893E" stroke="#16873E" stroke-miterlimit="10" font-family="'TimesNewRomanPSMT'" font-size="43.1403">Neo Tecnology</text>
<text transform="matrix(0.6279 0 0 1 44.918 307.1694)"><tspan x="0" y="0" font-family="'MS-UIGothic'" font-size="39.318" letter-spacing="97.145">		</tspan><tspan x="219.823" y="0" fill="#067C1D" font-family="'MS-UIGothic'" font-size="39.318">Laboratorio electrònico</tspan></text>
<text transform="matrix(1.1263 0 0 1 70.9209 343.6323)" font-family="'MyriadPro-Regular'" font-size="27.6532">soporte, servicio y soluciòn.</text>
</svg>
