<?xml version="1.0" standalone="no"?>
<!DOCTYPE svg PUBLIC "-//W3C//DTD SVG 20010904//EN"
 "http://www.w3.org/TR/2001/REC-SVG-20010904/DTD/svg10.dtd">
<svg version="1.0" xmlns="http://www.w3.org/2000/svg"
 width="520.000000pt" height="436.000000pt" viewBox="0 0 520.000000 436.000000"
 preserveAspectRatio="xMidYMid meet">

<g transform="translate(0.000000,436.000000) scale(0.100000,-0.100000)"
fill="#000000" stroke="none">
<path d="M4275 3891 c-129 -60 -190 -245 -122 -376 52 -101 123 -149 222 -148
136 1 233 101 243 249 8 124 -45 227 -141 273 -56 27 -146 28 -202 2z"/>
<path d="M647 3646 c-88 -32 -155 -113 -176 -213 -9 -44 -11 -370 -9 -1308 l3
-1250 22 -41 c12 -23 39 -53 60 -65 l38 -24 1882 0 1881 0 39 31 c21 16 48 51
61 76 l24 47 -2 538 c0 296 -4 541 -9 546 -5 5 -28 7 -52 5 l-44 -3 -5 -545
c-3 -300 -7 -546 -8 -548 -1 -2 -18 -10 -37 -18 -30 -12 -287 -14 -1848 -14
-1287 0 -1823 3 -1845 11 -24 8 -34 20 -42 47 -8 26 -10 419 -8 1262 3 1182 4
1226 22 1263 11 22 37 51 59 65 l41 27 1545 3 c850 1 1554 2 1563 2 47 0 66
76 26 104 -20 14 -186 16 -1583 16 -1277 -1 -1567 -3 -1598 -14z"/>
<path d="M1133 3481 c-294 -6 -313 -7 -339 -27 -15 -11 -37 -33 -48 -48 -21
-27 -21 -32 -18 -924 3 -869 4 -898 23 -928 11 -18 36 -40 57 -50 34 -16 70
-18 435 -16 429 2 425 1 477 57 l25 27 3 901 c2 891 2 902 -18 935 -46 75
-106 82 -597 73z m558 -273 c2 -28 -3 -823 -5 -825 -1 -2 -16 -6 -33 -9 -24
-5 -35 -1 -49 15 -24 27 -27 27 -64 -9 -21 -20 -38 -29 -49 -25 -24 7 -47 -20
-33 -38 14 -17 4 -57 -15 -57 -10 0 -13 -9 -11 -27 2 -16 9 -28 16 -28 21 0
44 -36 32 -50 -16 -19 12 -36 47 -29 23 5 35 1 51 -16 14 -16 26 -20 42 -15
12 4 19 13 17 20 -4 10 30 35 47 35 2 0 6 -84 9 -187 4 -128 3 -191 -5 -200
-8 -10 -71 -13 -287 -13 l-276 0 89 89 88 88 73 -1 c60 -1 79 3 102 20 43 32
73 82 73 123 l0 35 -49 -48 -50 -49 -47 20 c-41 16 -51 26 -67 65 l-18 46 48
46 48 46 -40 0 c-49 0 -98 -28 -126 -72 -16 -27 -19 -45 -16 -96 l5 -62 -132
-125 -131 -125 -72 0 c-39 0 -78 3 -87 6 -14 6 -16 79 -16 728 0 398 3 726 7
729 3 4 204 7 445 7 343 0 438 -3 439 -12z m-41 -916 c26 -32 25 -55 -3 -88
-32 -36 -83 -36 -114 1 -28 32 -29 55 -3 88 33 42 87 42 120 -1z m-351 -577
c66 -33 61 -123 -7 -152 -65 -27 -132 12 -132 77 0 74 70 111 139 75z"/>
<path d="M1225 2792 c-5 -26 -11 -30 -53 -35 -39 -5 -50 -3 -64 14 -19 23 -38
20 -77 -10 -23 -17 -23 -20 -8 -41 15 -21 14 -25 -16 -62 -26 -32 -35 -38 -58
-33 -24 6 -27 3 -37 -37 -12 -45 -5 -58 29 -58 12 0 18 -13 23 -47 6 -42 4
-50 -15 -66 -23 -19 -21 -32 16 -81 12 -16 16 -17 35 -3 20 14 25 13 65 -11
37 -23 42 -31 38 -53 -6 -31 -1 -35 49 -44 34 -6 38 -5 43 17 5 20 16 27 53
36 44 10 48 10 67 -13 l20 -24 35 21 c19 12 37 23 39 25 2 2 -1 14 -8 27 -12
21 -10 28 16 62 21 30 34 38 52 36 30 -5 38 4 46 50 7 34 5 36 -24 43 -25 5
-31 12 -31 33 0 15 -3 36 -6 47 -4 15 2 25 20 34 25 14 25 14 8 43 -26 44 -36
50 -65 37 -22 -10 -30 -8 -62 17 -29 24 -35 34 -31 56 5 23 1 27 -27 33 -18 4
-39 9 -49 11 -12 3 -18 -3 -23 -24z m66 -128 c34 -17 77 -68 85 -100 4 -14 4
-45 1 -70 -18 -162 -246 -195 -318 -46 -70 144 88 291 232 216z"/>
<path d="M3515 3134 c-135 -50 -177 -238 -79 -353 122 -142 339 -47 337 149
-1 96 -65 186 -150 209 -48 14 -59 13 -108 -5z"/>
<path d="M4329 2767 c-139 -74 -141 -296 -4 -374 126 -72 274 28 275 185 0
158 -141 257 -271 189z"/>
<path d="M3445 2248 c-29 -16 -31 -18 -16 -27 20 -12 24 -218 5 -248 -14 -22
-13 -23 26 -23 22 0 40 5 40 10 0 6 -4 10 -10 10 -6 0 -10 55 -10 145 0 80 -3
145 -7 145 -5 0 -17 -6 -28 -12z"/>
<path d="M1918 2224 c21 -14 22 -22 22 -135 0 -99 -3 -119 -15 -119 -8 0 -15
-4 -15 -10 0 -5 21 -10 48 -9 46 0 46 1 25 16 -21 14 -23 23 -23 105 0 51 4
87 9 84 5 -3 40 -52 78 -108 l68 -103 3 135 c2 112 5 137 19 148 14 10 10 12
-28 12 -35 -1 -40 -3 -26 -11 14 -8 17 -25 17 -100 l0 -90 -67 100 c-64 96
-69 101 -102 101 -35 0 -35 0 -13 -16z"/>
<path d="M2577 2233 c-2 -5 -1 -19 3 -33 6 -25 6 -25 12 -2 5 16 13 22 36 22
l30 0 1 -100 c2 -112 -5 -150 -25 -150 -8 0 -14 -4 -14 -10 0 -5 24 -10 53
-10 45 1 50 2 35 14 -15 11 -18 31 -18 135 l0 121 28 0 c20 0 32 -7 40 -22 10
-22 11 -21 11 10 l1 32 -94 0 c-52 0 -97 -3 -99 -7z"/>
<path d="M2199 2141 c-34 -27 -40 -125 -9 -163 14 -19 31 -28 50 -28 32 0 44
13 54 55 7 30 7 30 -9 8 -21 -30 -51 -29 -71 2 -24 37 -15 58 26 61 58 2 60 3
60 27 0 29 -29 57 -57 57 -12 0 -31 -8 -44 -19z m59 -29 c3 -19 -1 -22 -27
-22 -33 0 -41 16 -19 38 18 18 43 10 46 -16z"/>
<path d="M2355 2135 c-29 -28 -35 -67 -20 -133 19 -84 120 -63 140 28 13 59
-29 130 -78 130 -10 0 -29 -11 -42 -25z m70 -25 c21 -41 20 -113 -3 -134 -18
-15 -20 -15 -37 4 -10 11 -20 41 -23 68 -8 83 32 122 63 62z"/>
<path d="M2800 2142 c-27 -21 -42 -102 -28 -143 11 -32 49 -54 81 -46 24 7 53
52 38 62 -5 3 -11 -2 -15 -10 -15 -39 -76 0 -76 49 0 25 2 27 40 23 59 -6 79
24 40 63 -25 25 -51 25 -80 2z m48 -14 c21 -21 13 -38 -18 -38 -31 0 -35 6
-24 34 7 19 25 21 42 4z"/>
<path d="M2963 2148 c-26 -13 -32 -26 -37 -95 -6 -61 19 -103 60 -103 30 0 64
33 64 62 l0 22 -16 -22 c-35 -50 -89 -2 -80 72 7 57 39 75 56 31 11 -29 40
-34 40 -7 0 22 -30 52 -51 51 -8 0 -24 -5 -36 -11z"/>
<path d="M3085 2147 c-12 -10 -14 -16 -7 -21 15 -9 16 -142 2 -151 -21 -13 -9
-25 25 -25 19 0 35 5 35 10 0 6 -4 10 -10 10 -6 0 -10 30 -10 70 0 59 3 71 20
80 11 6 25 8 30 5 13 -8 13 -155 0 -155 -5 0 -10 -4 -10 -10 0 -5 19 -10 41
-10 37 0 40 2 28 16 -8 10 -14 46 -15 91 -3 95 -18 117 -64 91 -25 -14 -30
-15 -30 -3 0 19 -11 19 -35 2z"/>
<path d="M3281 2141 c-59 -59 -34 -191 36 -191 37 0 60 16 72 51 23 66 8 128
-36 148 -34 16 -50 14 -72 -8z m63 -23 c17 -24 22 -114 7 -136 -16 -25 -45 -8
-59 33 -14 42 -10 88 9 112 16 18 25 16 43 -9z"/>
<path d="M3559 2147 c-65 -50 -45 -197 27 -197 53 0 84 42 84 112 0 74 -63
122 -111 85z m55 -29 c16 -22 22 -102 10 -132 -7 -18 -39 -21 -50 -5 -16 27
-23 86 -13 122 11 42 31 48 53 15z"/>
<path d="M3721 2139 c-23 -25 -27 -56 -10 -93 9 -20 9 -29 -1 -41 -7 -8 -10
-25 -6 -39 3 -14 2 -28 -4 -31 -20 -12 -11 -52 15 -63 65 -30 135 6 135 68 0
32 -28 50 -77 50 -53 0 -56 22 -2 30 37 6 62 40 56 78 -3 14 1 22 9 22 8 0 14
5 14 12 0 28 29 -21 55 -95 23 -64 26 -82 17 -102 -8 -17 -20 -25 -37 -25 -20
0 -25 -5 -25 -25 0 -30 24 -33 52 -8 10 9 34 66 53 127 19 61 40 119 45 129 9
14 6 17 -16 17 -15 0 -23 -4 -19 -10 7 -12 -15 -110 -25 -110 -3 0 -14 23 -24
51 -16 43 -17 53 -5 60 9 6 -11 9 -56 8 -38 -1 -82 2 -96 6 -21 5 -31 2 -48
-16z m69 -29 c10 -38 -3 -75 -26 -75 -26 0 -44 66 -24 90 18 22 43 15 50 -15z
m45 -171 c19 -29 -53 -61 -99 -43 -16 6 -22 35 -9 47 11 11 101 8 108 -4z"/>
<path d="M1862 1623 l-2 -133 50 0 c38 0 50 4 50 15 0 11 -12 15 -45 15 l-44
0 -4 118 -3 117 -2 -132z"/>
<path d="M2100 1620 c0 -71 4 -130 9 -130 12 0 22 30 14 43 -8 14 -8 69 0 91
4 11 15 16 29 14 19 -2 24 -10 26 -42 5 -57 -5 -86 -28 -86 -11 0 -20 -4 -20
-10 0 -18 39 -11 50 9 14 28 12 114 -4 136 -8 12 -20 16 -35 12 -19 -5 -21 -1
-21 44 0 27 -4 49 -10 49 -6 0 -10 -50 -10 -130z"/>
<path d="M2862 1730 c0 -14 2 -19 5 -12 2 6 2 18 0 25 -3 6 -5 1 -5 -13z"/>
<path d="M3234 1625 c0 -71 1 -99 3 -62 2 37 2 96 0 130 -2 34 -3 4 -3 -68z"/>
<path d="M3951 1734 c0 -11 3 -14 6 -6 3 7 2 16 -1 19 -3 4 -6 -2 -5 -13z"/>
<path d="M3737 1706 c10 -13 19 -23 21 -21 7 6 -19 45 -29 45 -5 0 -2 -11 8
-24z"/>
<path d="M2560 1691 c0 -16 -6 -32 -12 -35 -10 -5 -10 -7 0 -12 7 -4 12 -27
12 -63 0 -67 17 -99 46 -86 18 8 17 9 -3 12 -21 4 -23 10 -23 69 0 50 3 64 15
64 8 0 15 5 15 10 0 6 -7 10 -15 10 -10 0 -15 10 -15 30 0 17 -4 30 -10 30 -5
0 -10 -13 -10 -29z"/>
<path d="M3542 1693 c-1 -17 -8 -34 -14 -37 -10 -5 -10 -7 0 -12 7 -4 12 -27
12 -64 0 -71 6 -90 31 -90 25 0 24 16 -1 23 -17 4 -20 14 -20 66 0 48 3 61 15
61 8 0 15 5 15 10 0 6 -6 10 -14 10 -9 0 -16 13 -19 33 l-4 32 -1 -32z"/>
<path d="M2002 1648 c-7 -7 -12 -19 -12 -27 0 -11 3 -10 14 4 8 11 19 16 30
12 23 -9 20 -36 -7 -46 -38 -15 -52 -38 -41 -69 8 -23 15 -27 47 -27 l37 -1 0
64 c0 35 -5 72 -10 83 -12 21 -40 25 -58 7z m44 -124 c-7 -18 -42 -18 -49 0
-6 16 11 42 33 48 16 5 26 -23 16 -48z"/>
<path d="M2245 1650 c-31 -51 -22 -143 16 -155 12 -4 26 -2 32 4 8 8 4 11 -15
11 -30 0 -38 15 -38 75 0 36 4 45 22 51 31 10 50 -21 45 -73 -2 -23 0 -40 5
-37 14 9 9 88 -8 112 -16 23 -48 29 -59 12z"/>
<path d="M2351 1578 c1 -82 2 -82 9 -28 6 41 15 60 34 75 14 11 26 24 26 28 0
14 -20 7 -40 -15 -14 -15 -19 -17 -15 -7 4 10 2 20 -4 24 -8 4 -11 -20 -10
-77z"/>
<path d="M2452 1648 c-7 -7 -12 -19 -12 -27 1 -13 2 -13 11 2 13 22 45 22 53
0 7 -17 -9 -33 -31 -33 -7 0 -20 -11 -29 -25 -13 -20 -15 -31 -6 -50 9 -19 18
-23 46 -22 l36 2 0 63 c0 35 -5 72 -10 83 -12 21 -40 25 -58 7z m58 -87 c0
-35 -12 -51 -36 -51 -35 0 -43 29 -15 52 30 23 51 23 51 -1z"/>
<path d="M2656 1638 c-22 -31 -21 -100 2 -128 26 -33 58 -19 73 30 24 79 -35
156 -75 98z m58 -20 c17 -64 -3 -118 -38 -105 -20 8 -30 66 -17 100 13 34 46
36 55 5z"/>
<path d="M2772 1575 c1 -89 1 -90 8 -25 3 36 3 76 -1 90 -4 14 -7 -13 -7 -65z"/>
<path d="M2802 1648 c-19 -19 -14 -30 8 -18 11 6 20 15 20 20 0 14 -14 12 -28
-2z"/>
<path d="M2857 1654 c-6 -6 2 -156 9 -163 2 -2 4 35 4 82 0 86 -1 93 -13 81z"/>
<path d="M2915 1630 c-8 -16 -15 -41 -15 -55 0 -39 27 -85 50 -85 23 0 50 46
50 85 0 39 -27 85 -50 85 -11 0 -26 -12 -35 -30z m65 -9 c22 -41 3 -111 -30
-111 -19 0 -39 32 -40 63 0 39 17 67 40 67 11 0 24 -9 30 -19z"/>
<path d="M3120 1641 c-5 -11 -10 -41 -10 -66 0 -25 5 -55 10 -66 14 -25 45
-24 64 3 19 27 11 39 -9 12 -18 -25 -49 -8 -53 30 -3 24 -1 26 38 26 41 0 42
1 35 27 -13 54 -54 72 -75 34z m60 -26 c0 -21 -5 -25 -30 -25 -16 0 -30 4 -30
9 0 25 14 41 36 41 19 0 24 -5 24 -25z"/>
<path d="M3300 1645 c-18 -22 -23 -96 -8 -125 8 -14 22 -26 33 -28 18 -4 45
22 45 42 0 6 -5 3 -11 -6 -10 -18 -44 -25 -52 -10 -2 4 -7 19 -11 35 -6 26 -5
27 34 27 43 0 48 8 30 54 -11 29 -41 34 -60 11z m50 -25 c0 -15 -7 -20 -25
-20 -18 0 -25 5 -25 20 0 15 7 20 25 20 18 0 25 -5 25 -20z"/>
<path d="M3414 1625 c-7 -19 -14 -41 -14 -50 0 -9 7 -31 14 -50 21 -50 60 -46
79 8 4 9 3 17 -2 17 -5 0 -11 -9 -14 -20 -6 -24 -42 -27 -51 -4 -11 30 -6 91
9 104 13 10 19 10 35 -5 16 -14 20 -15 20 -4 0 21 -20 39 -43 39 -11 0 -23
-13 -33 -35z"/>
<path d="M3610 1573 c0 -95 17 -106 20 -13 3 79 1 100 -10 100 -6 0 -10 -36
-10 -87z"/>
<path d="M3652 1648 c-19 -19 -14 -30 8 -18 11 6 20 15 20 20 0 14 -14 12 -28
-2z"/>
<path d="M3716 1638 c-22 -31 -21 -100 2 -128 27 -33 59 -19 73 32 21 81 -35
153 -75 96z m59 -57 c0 -40 -4 -57 -17 -65 -26 -16 -43 7 -43 60 0 46 15 67
45 61 11 -2 15 -16 15 -56z"/>
<path d="M3833 1575 c0 -54 2 -68 4 -35 4 65 20 100 45 100 16 0 18 -9 18 -75
0 -48 4 -75 11 -75 15 0 8 145 -8 161 -9 9 -19 10 -37 1 -19 -8 -26 -8 -30 1
-2 7 -4 -28 -3 -78z"/>
<path d="M3952 1580 c0 -52 2 -77 7 -65 5 11 5 49 1 85 l-7 65 -1 -85z"/>
<path d="M4016 1638 c-31 -44 -12 -139 29 -146 20 -4 45 22 44 47 0 10 -4 7
-9 -6 -22 -56 -79 -5 -65 58 10 42 31 56 55 34 22 -20 26 -14 10 16 -14 26
-45 24 -64 -3z"/>
<path d="M4135 1630 c-30 -59 -6 -139 42 -140 17 0 43 52 43 85 0 39 -27 85
-50 85 -11 0 -26 -12 -35 -30z m51 2 c31 -21 19 -122 -15 -122 -23 0 -31 19
-31 74 0 54 15 69 46 48z"/>
<path d="M2340 1300 c0 -5 5 -10 10 -10 6 0 10 5 10 10 0 6 -4 10 -10 10 -5 0
-10 -4 -10 -10z"/>
<path d="M2562 1299 c2 -6 8 -10 13 -10 5 0 11 4 13 10 2 6 -4 11 -13 11 -9 0
-15 -5 -13 -11z"/>
<path d="M3400 1308 c-1 -2 -2 -45 -3 -96 -2 -76 1 -92 13 -92 13 0 14 16 12
95 -2 52 -8 95 -13 95 -5 0 -9 -1 -9 -2z"/>
<path d="M3772 1299 c2 -6 8 -10 13 -10 5 0 11 4 13 10 2 6 -4 11 -13 11 -9 0
-15 -5 -13 -11z"/>
<path d="M3895 1290 c10 -11 20 -20 22 -20 2 0 -1 9 -7 20 -6 11 -16 20 -22
20 -6 0 -3 -9 7 -20z"/>
<path d="M1438 1261 c-9 -11 -15 -21 -13 -23 2 -1 4 -23 6 -48 1 -25 5 -51 7
-57 5 -15 38 -17 47 -3 3 5 0 7 -9 4 -13 -5 -16 7 -18 70 -3 73 -4 76 -20 57z"/>
<path d="M937 1224 c21 -21 24 -32 20 -62 -6 -34 -5 -35 8 -18 22 30 18 62
-11 85 -37 29 -48 26 -17 -5z"/>
<path d="M1064 1235 c-18 -13 -18 -14 5 -8 44 11 68 -52 34 -89 -16 -18 -16
-18 1 -12 17 7 36 42 36 70 0 15 -35 54 -48 54 -5 0 -17 -7 -28 -15z"/>
<path d="M1247 1224 c21 -21 24 -32 20 -62 -6 -34 -5 -35 8 -18 22 30 18 62
-11 85 -37 29 -48 26 -17 -5z"/>
<path d="M1573 1239 c9 -5 17 -17 17 -24 0 -8 7 -15 15 -15 8 0 15 4 15 9 0
12 -40 41 -55 41 -5 0 -2 -5 8 -11z"/>
<path d="M2122 1241 c-11 -6 -10 -10 4 -15 20 -8 32 0 18 14 -5 5 -15 5 -22 1z"/>
<path d="M2481 1229 c11 -11 24 -18 27 -14 4 4 -2 13 -12 21 -30 21 -39 17
-15 -7z"/>
<path d="M2575 1242 c-5 -4 -10 -33 -10 -64 0 -45 3 -58 15 -58 12 0 14 11 12
48 -5 74 -6 82 -17 74z"/>
<path d="M2717 1224 c21 -21 24 -32 20 -62 -6 -34 -5 -35 8 -18 22 30 18 62
-11 85 -37 29 -48 26 -17 -5z"/>
<path d="M3307 1224 c21 -21 24 -32 20 -62 -6 -34 -5 -35 8 -18 22 30 18 62
-11 85 -37 29 -48 26 -17 -5z"/>
<path d="M3691 1229 c11 -11 24 -18 27 -14 4 4 -2 13 -12 21 -30 21 -39 17
-15 -7z"/>
<path d="M3785 1242 c-5 -4 -10 -33 -10 -64 0 -45 3 -58 15 -58 12 0 14 11 12
48 -5 74 -6 82 -17 74z"/>
<path d="M3924 1230 c25 -20 28 -28 23 -62 -4 -33 -3 -37 9 -27 17 14 18 73 2
87 -7 5 -24 13 -38 17 -24 7 -24 7 4 -15z"/>
<path d="M4056 1235 c-14 -8 -26 -10 -26 -4 0 5 -6 9 -12 9 -9 0 -13 -19 -13
-60 0 -47 3 -60 15 -60 11 0 15 12 15 46 0 50 18 73 50 61 14 -6 16 -17 13
-57 -2 -40 0 -50 12 -50 12 0 15 9 13 38 -9 86 -21 101 -67 77z"/>
<path d="M737 1234 c-15 -16 -5 -36 28 -55 19 -12 35 -27 35 -35 0 -17 -41
-19 -58 -2 -9 9 -12 8 -12 -5 0 -12 8 -17 29 -17 68 0 83 37 29 70 -18 11 -35
27 -38 35 -3 9 -9 13 -13 9z"/>
<path d="M795 1230 c3 -5 8 -10 11 -10 2 0 4 5 4 10 0 6 -5 10 -11 10 -5 0 -7
-4 -4 -10z"/>
<path d="M867 1222 c-10 -10 -17 -28 -17 -40 0 -22 32 -62 50 -62 6 0 1 9 -10
20 -22 22 -27 69 -8 88 7 7 10 12 7 12 -3 0 -13 -8 -22 -18z"/>
<path d="M1015 1150 c0 -73 3 -90 15 -90 11 0 15 11 13 42 -1 24 -2 64 -2 91
-1 30 -5 47 -13 47 -10 0 -13 -25 -13 -90z"/>
<path d="M1177 1222 c-10 -10 -17 -28 -17 -40 0 -22 32 -62 50 -62 6 0 1 9
-10 20 -22 22 -27 69 -8 88 7 7 10 12 7 12 -3 0 -13 -8 -22 -18z"/>
<path d="M1325 1178 c0 -55 1 -58 25 -58 19 0 21 3 12 12 -16 16 -15 73 2 87
7 6 21 9 30 5 9 -3 16 -2 16 4 0 6 -19 10 -42 10 l-43 -1 0 -59z"/>
<path d="M1807 1226 c-7 -17 8 -36 46 -60 15 -9 25 -21 22 -26 -9 -14 -49 -12
-63 2 -9 9 -12 8 -12 -5 0 -22 62 -23 84 -2 21 21 12 39 -30 59 -24 11 -34 21
-30 31 3 8 1 15 -3 15 -5 0 -11 -6 -14 -14z"/>
<path d="M1866 1233 c5 -5 12 -12 16 -18 4 -6 8 -2 8 8 0 9 -7 17 -17 17 -9 0
-12 -3 -7 -7z"/>
<path d="M1936 1218 c-21 -30 -20 -54 4 -78 23 -23 62 -26 79 -7 8 11 5 13
-18 9 -48 -7 -82 53 -49 86 7 7 9 12 6 12 -4 0 -14 -10 -22 -22z"/>
<path d="M2000 1233 c0 -5 4 -15 10 -23 11 -18 25 -7 17 15 -6 15 -27 21 -27
8z"/>
<path d="M2068 1180 c-3 -57 -2 -60 20 -60 15 0 21 4 16 12 -4 7 -6 34 -5 60
2 37 -1 48 -12 48 -11 0 -16 -15 -19 -60z"/>
<path d="M2201 1178 c20 -39 34 -57 38 -49 10 15 -39 111 -57 111 -8 0 -1 -22
19 -62z"/>
<path d="M2267 1205 c-24 -50 -20 -58 4 -12 11 22 19 41 17 43 -3 2 -12 -12
-21 -31z"/>
<path d="M2335 1180 c0 -47 3 -60 15 -60 12 0 14 12 12 60 -5 81 -27 81 -27 0z"/>
<path d="M2422 1228 c-18 -18 -14 -73 6 -91 26 -23 55 -21 78 5 14 17 15 19 2
10 -43 -34 -99 22 -70 68 13 22 3 27 -16 8z"/>
<path d="M2647 1222 c-10 -10 -17 -28 -17 -40 0 -22 32 -62 50 -62 6 0 1 9
-10 20 -22 22 -27 69 -8 88 7 7 10 12 7 12 -3 0 -13 -8 -22 -18z"/>
<path d="M2902 1180 l33 -60 13 26 c7 14 11 28 8 32 -3 3 -6 0 -6 -6 0 -25
-18 -10 -35 28 -10 22 -24 40 -32 40 -10 0 -5 -17 19 -60z"/>
<path d="M3107 1234 c-15 -16 -5 -36 28 -55 19 -12 35 -27 35 -35 0 -17 -41
-19 -58 -2 -9 9 -12 8 -12 -5 0 -12 8 -17 29 -17 68 0 83 37 29 70 -18 11 -35
27 -38 35 -3 9 -9 13 -13 9z"/>
<path d="M3165 1230 c3 -5 8 -10 11 -10 2 0 4 5 4 10 0 6 -5 10 -11 10 -5 0
-7 -4 -4 -10z"/>
<path d="M3237 1222 c-10 -10 -17 -28 -17 -40 0 -23 32 -62 51 -62 6 0 3 7 -5
16 -22 22 -30 59 -16 83 13 26 8 27 -13 3z"/>
<path d="M3480 1183 c5 -53 7 -58 30 -61 22 -2 23 -1 8 8 -13 8 -18 24 -18 60
0 34 -4 50 -13 50 -9 0 -11 -15 -7 -57z"/>
<path d="M3560 1197 c0 -24 -6 -49 -12 -56 -9 -9 -9 -12 -1 -7 6 3 13 1 15 -6
10 -30 23 6 20 56 -4 65 -22 76 -22 13z"/>
<path d="M3632 1228 c-18 -18 -14 -73 6 -91 26 -23 55 -21 78 5 14 17 15 19 2
10 -43 -34 -99 22 -70 68 13 22 3 27 -16 8z"/>
<path d="M3856 1218 c-9 -12 -16 -30 -16 -40 0 -23 35 -58 58 -58 16 1 16 1
-1 11 -26 15 -38 54 -27 84 12 31 6 32 -14 3z"/>
<path d="M1517 1223 c-14 -13 -6 -70 11 -86 22 -20 55 -22 71 -4 8 11 5 13
-17 9 -34 -5 -53 15 -54 57 -1 34 -1 34 -11 24z"/>
<path d="M1656 1143 c-11 -11 -6 -23 9 -23 18 0 19 -11 3 -30 -11 -12 -10 -12
5 -1 9 7 17 21 17 31 0 18 -23 34 -34 23z"/>
<path d="M4176 1143 c-11 -11 -6 -23 9 -23 8 0 15 4 15 9 0 13 -16 22 -24 14z"/>
<path d="M2863 1077 c5 -17 21 -19 41 -4 17 13 16 14 -13 15 -20 0 -31 -4 -28
-11z"/>
<path d="M189 623 c-23 -27 -17 -176 9 -243 33 -84 106 -169 177 -205 l59 -30
2030 0 2031 0 56 28 c118 58 197 185 207 332 4 68 2 89 -12 110 l-16 25 -793
0 c-872 0 -812 4 -982 -62 -59 -23 -64 -23 -485 -23 -469 0 -411 -6 -602 64
-57 21 -70 21 -862 21 -736 0 -805 -1 -817 -17z m1374 -40 c-23 -2 -64 -2 -90
0 -26 2 -7 3 42 3 50 0 71 -1 48 -3z m-289 -92 c9 -15 -23 -36 -36 -23 -5 5
-7 15 -4 21 9 13 33 14 40 2z m169 -87 c3 -3 3 -12 0 -20 -4 -11 -27 -14 -93
-14 -85 0 -109 8 -95 30 7 11 177 14 188 4z"/>
</g>
</svg>
